<?xml version="1.0" encoding="UTF-8" standalone="no"?>
<!-- Created with Inkscape (http://www.inkscape.org/) -->

<svg
   xmlns:dc="http://purl.org/dc/elements/1.1/"
   xmlns:cc="http://creativecommons.org/ns#"
   xmlns:rdf="http://www.w3.org/1999/02/22-rdf-syntax-ns#"
   xmlns:svg="http://www.w3.org/2000/svg"
   xmlns="http://www.w3.org/2000/svg"
   xmlns:sodipodi="http://sodipodi.sourceforge.net/DTD/sodipodi-0.dtd"
   xmlns:inkscape="http://www.inkscape.org/namespaces/inkscape"
   width="210mm"
   height="297mm"
   viewBox="0 0 210 297"
   version="1.1"
   id="svg953"
   sodipodi:docname="flat.svg"
   inkscape:version="0.92.4 (5da689c313, 2019-01-14)">
  <defs
     id="defs947" />
  <sodipodi:namedview
     id="base"
     pagecolor="#ffffff"
     bordercolor="#666666"
     borderopacity="1.0"
     inkscape:pageopacity="0.0"
     inkscape:pageshadow="2"
     inkscape:zoom="1.4"
     inkscape:cx="566.79918"
     inkscape:cy="733.7488"
     inkscape:document-units="mm"
     inkscape:current-layer="layer1"
     showgrid="false"
     inkscape:window-width="3840"
     inkscape:window-height="2066"
     inkscape:window-x="-11"
     inkscape:window-y="-11"
     inkscape:window-maximized="1" />
  <metadata
     id="metadata950">
    <rdf:RDF>
      <cc:Work
         rdf:about="">
        <dc:format>image/svg+xml</dc:format>
        <dc:type
           rdf:resource="http://purl.org/dc/dcmitype/StillImage" />
        <dc:title></dc:title>
      </cc:Work>
    </rdf:RDF>
  </metadata>
  <g
     inkscape:label="Layer 1"
     inkscape:groupmode="layer"
     id="layer1">
    <g
       transform="matrix(-0.21444228,0,0,0.21444228,197.14506,118.37573)"
       id="g878"
       style="stroke:none;stroke-opacity:1;fill:#000000;fill-opacity:1">
      <g
         id="g876"
         style="stroke:none;stroke-opacity:1;fill:#000000;fill-opacity:1" />
    </g>
    <g
       transform="matrix(-0.26458333,0,0,0.26458333,230.78504,237.81615)"
       id="g880" />
    <g
       transform="matrix(-0.26458333,0,0,0.26458333,230.78504,237.81615)"
       id="g882" />
    <g
       transform="matrix(-0.26458333,0,0,0.26458333,230.78504,237.81615)"
       id="g884" />
    <g
       transform="matrix(-0.26458333,0,0,0.26458333,230.78504,237.81615)"
       id="g886" />
    <g
       transform="matrix(-0.26458333,0,0,0.26458333,230.78504,237.81615)"
       id="g888" />
    <g
       transform="matrix(-0.26458333,0,0,0.26458333,230.78504,237.81615)"
       id="g890" />
    <g
       transform="matrix(-0.26458333,0,0,0.26458333,230.78504,237.81615)"
       id="g892" />
    <g
       transform="matrix(-0.26458333,0,0,0.26458333,230.78504,237.81615)"
       id="g894" />
    <g
       transform="matrix(-0.26458333,0,0,0.26458333,230.78504,237.81615)"
       id="g896" />
    <g
       transform="matrix(-0.26458333,0,0,0.26458333,230.78504,237.81615)"
       id="g898" />
    <g
       transform="matrix(-0.26458333,0,0,0.26458333,230.78504,237.81615)"
       id="g900" />
    <g
       transform="matrix(-0.26458333,0,0,0.26458333,230.78504,237.81615)"
       id="g902" />
    <g
       transform="matrix(-0.26458333,0,0,0.26458333,230.78504,237.81615)"
       id="g904" />
    <g
       transform="matrix(-0.26458333,0,0,0.26458333,230.78504,237.81615)"
       id="g906" />
    <g
       transform="matrix(-0.26458333,0,0,0.26458333,230.78504,237.81615)"
       id="g908" />
    <path
       id="path1614"
       style="fill:#000000;fill-opacity:1;stroke:none;stroke-width:1.94307411;stroke-miterlimit:4;stroke-dasharray:none;stroke-opacity:1"
       d="M -3.7796886,50.937754 V 183.83864 H 211.25901 V 50.937754 Z M 102.93431,61.412416 c 53.15119,10e-7 96.23878,25.061095 96.23889,55.975564 3e-4,30.91464 -43.0874,55.976 -96.23889,55.976 -53.151485,0 -96.2391905,-25.06136 -96.2388885,-55.976 C 6.6955335,86.473512 49.783118,61.412418 102.93431,61.412416 Z"
       inkscape:connector-curvature="0"
       sodipodi:nodetypes="cccccscscs" />
  </g>
</svg>
