<?xml version="1.0" encoding="UTF-8" standalone="no"?>
<svg
   xmlns:dc="http://purl.org/dc/elements/1.1/"
   xmlns:cc="http://creativecommons.org/ns#"
   xmlns:rdf="http://www.w3.org/1999/02/22-rdf-syntax-ns#"
   xmlns:svg="http://www.w3.org/2000/svg"
   xmlns="http://www.w3.org/2000/svg"
   xmlns:sodipodi="http://sodipodi.sourceforge.net/DTD/sodipodi-0.dtd"
   xmlns:inkscape="http://www.inkscape.org/namespaces/inkscape"
   version="1.1"
   id="Layer_1"
   x="0px"
   y="0px"
   viewBox="0 0 122.88 111.96"
   style="enable-background:new 0 0 122.88 111.96"
   xml:space="preserve"
   sodipodi:docname="stack_stop.svg"
   inkscape:version="0.92.4 (5da689c313, 2019-01-14)"><metadata
     id="metadata835"><rdf:RDF><cc:Work
         rdf:about=""><dc:format>image/svg+xml</dc:format><dc:type
           rdf:resource="http://purl.org/dc/dcmitype/StillImage" /><dc:title></dc:title></cc:Work></rdf:RDF></metadata><defs
     id="defs833" /><sodipodi:namedview
     pagecolor="#ffffff"
     bordercolor="#666666"
     borderopacity="1"
     objecttolerance="10"
     gridtolerance="10"
     guidetolerance="10"
     inkscape:pageopacity="0"
     inkscape:pageshadow="2"
     inkscape:window-width="1857"
     inkscape:window-height="1290"
     id="namedview831"
     showgrid="false"
     inkscape:zoom="2.909963"
     inkscape:cx="92.192301"
     inkscape:cy="34.24933"
     inkscape:window-x="1287"
     inkscape:window-y="233"
     inkscape:window-maximized="0"
     inkscape:current-layer="Layer_1" /><g
     id="g5905"
     style="fill-opacity:1;fill:none;stroke:#000000;stroke-opacity:1;stroke-width:1.0015748;stroke-miterlimit:4;stroke-dasharray:none"><g
       transform="matrix(0.65610132,0,0,0.65610132,20.453546,16.82233)"
       style="fill:none;fill-opacity:1;stroke:#000000;stroke-opacity:1;stroke-width:1.52655508;stroke-miterlimit:4;stroke-dasharray:none"
       id="g828"><path
         style="fill:none;fill-opacity:1;stroke:#000000;stroke-width:1.52655508;stroke-miterlimit:4;stroke-dasharray:none;stroke-opacity:1"
         d="M 61.15,0 C 40.766667,8.84 20.383333,17.68 0,26.52 20.47,34.84 40.94,43.16 61.41,51.48 81.9,43.186667 102.39,34.893333 122.88,26.6 102.30333,17.733333 81.726667,8.8666667 61.15,0 Z m 61.73,57.12 C 113.74,53.183333 104.6,49.246667 95.46,45.31 84.55,49.726667 73.64,54.143333 62.73,58.56 59.056,59.047456 55.801388,56.465213 52.348452,55.416481 43.988968,52.017654 35.629484,48.618827 27.27,45.22 18.18,49.163333 9.09,53.106667 0,57.05 20.47,65.366667 40.94,73.683333 61.41,82 81.9,73.706667 102.39,65.413333 122.88,57.12 Z M 96.14,75.56 C 85.003333,80.066667 73.866667,84.573333 62.73,89.08 59.056068,89.567289 55.801049,86.986047 52.34793,85.937764 43.761953,82.44851 35.175977,78.959255 26.59,75.47 17.726667,79.316667 8.8633333,83.163333 0,87.01 c 20.47,8.32 40.94,16.64 61.41,24.96 20.49,-8.29333 40.98,-16.586667 61.47,-24.88 -8.91333,-3.843333 -17.82667,-7.686667 -26.74,-11.53 z"
         id="path826"
         inkscape:connector-curvature="0" /></g></g><path
     inkscape:connector-curvature="0"
     d="M 100.40235,17.224941 C 90.058336,7.1045124 76.305607,1.5310698 61.677267,1.5310698 c -14.62833,0 -28.381062,5.5734426 -38.725078,15.6938712 C 12.6086,27.345584 6.9119323,40.801542 6.9119323,55.113771 c 0,14.312233 5.6966677,27.768191 16.0404707,37.888623 10.343802,10.120426 24.096534,15.694076 38.724864,15.694076 14.62834,0 28.381069,-5.57344 38.725083,-15.693874 10.34359,-10.120634 16.04025,-23.576592 16.04025,-37.888825 0,-14.312229 -5.69666,-27.768187 -16.04025,-37.88883 z m -4.53803,71.337622 c -9.131905,8.934287 -21.273127,13.854687 -34.187053,13.854687 -12.914133,0 -25.055137,-4.9204 -34.186836,-13.854897 -9.13169,-8.934496 -14.160688,-20.813531 -14.160688,-33.448582 0,-12.635048 5.028998,-24.51409 14.160688,-33.448789 9.131699,-8.934287 21.272703,-13.8546902 34.186836,-13.8546902 12.913926,0 25.055148,4.9204032 34.187053,13.8546902 9.13148,8.934699 14.16047,20.813741 14.16047,33.448789 0,12.635051 -5.02899,24.514086 -14.16047,33.448792 z"
     id="path8"
     style="stroke-width:0.21160465" /><path
     style="color:#000000;font-style:normal;font-variant:normal;font-weight:normal;font-stretch:normal;font-size:medium;line-height:normal;font-family:sans-serif;font-variant-ligatures:normal;font-variant-position:normal;font-variant-caps:normal;font-variant-numeric:normal;font-variant-alternates:normal;font-feature-settings:normal;text-indent:0;text-align:start;text-decoration:none;text-decoration-line:none;text-decoration-style:solid;text-decoration-color:#000000;letter-spacing:normal;word-spacing:normal;text-transform:none;writing-mode:lr-tb;direction:ltr;text-orientation:mixed;dominant-baseline:auto;baseline-shift:baseline;text-anchor:start;white-space:normal;shape-padding:0;clip-rule:nonzero;display:inline;overflow:visible;visibility:visible;opacity:1;isolation:auto;mix-blend-mode:normal;color-interpolation:sRGB;color-interpolation-filters:linearRGB;solid-color:#000000;solid-opacity:1;vector-effect:none;fill:#000000;fill-opacity:1;fill-rule:nonzero;stroke:none;stroke-width:5.29011679;stroke-linecap:butt;stroke-linejoin:miter;stroke-miterlimit:4;stroke-dasharray:none;stroke-dashoffset:0;stroke-opacity:1;color-rendering:auto;image-rendering:auto;shape-rendering:auto;text-rendering:auto;enable-background:accumulate"
     d="m 27.777367,19.944054 -3.777563,3.704583 71.14539,69.442643 3.777573,-3.70458 z"
     id="path3758"
     inkscape:connector-curvature="0" /></svg>